<?xml version="1.0" standalone="no"?><!DOCTYPE svg PUBLIC "-//W3C//DTD SVG 1.1//EN" "http://www.w3.org/Graphics/SVG/1.1/DTD/svg11.dtd">
<svg class="icon" width="200px" height="200.00px" viewBox="0 0 1024 1024" version="1.1" xmlns="http://www.w3.org/2000/svg">
	<path d="M352.020914 564.701293c-71.267137 27.267017-134.896316 72.79698-184.009897 131.664715-49.64877 59.509349-83.09758 131.111107-96.730065 207.064986-1.497097 8.344039 4.052293 16.322757 12.396331 17.819854 0.916882 0.164752 1.829671 0.24457 2.729158 0.24457 7.28901 0 13.757329-5.214768 15.090697-12.640901 25.610284-142.68163 125.808334-263.565814 261.494643-315.481208 7.91732-3.03001 11.879562-11.904121 8.850575-19.821441S359.939257 561.67026 352.020914 564.701293z"  />
	<path d="M952.718025 903.541511c-18.293645-102.066607-72.230068-195.344037-151.871943-262.646885-39.547715-33.42118-84.09121-59.501162-132.390239-77.516468-49.993624-18.647709-102.637612-28.102035-156.466588-28.102035-120.199593 0-217.989803-97.79021-217.989803-217.989803 0-120.200616 97.79021-217.990826 217.989803-217.990826 120.200616 0 217.990826 97.79021 217.990826 217.990826 0 60.412928-24.14798 116.589368-67.995627 158.181649-6.15007 5.833869-6.40692 15.549138-0.573051 21.700231s15.549138 6.40692 21.700231 0.573051c24.240077-22.994714 43.314505-50.102095 56.691163-80.57206 13.852496-31.5516 20.875446-65.156976 20.875446-99.882871 0-66.427922-25.868157-128.879276-72.839959-175.850054S578.417177 68.596308 511.989255 68.596308c-66.427922 0-128.878253 25.868157-175.850054 72.839959-46.970778 46.971801-72.839959 109.423155-72.839959 175.850054s25.868157 128.878253 72.839959 175.850054c46.970778 46.970778 109.422132 72.838935 175.850054 72.838935 202.246237 0 374.891296 144.245242 410.511561 342.982562 1.331321 7.429203 7.79964 12.643971 15.090697 12.643971 0.899486 0 1.811252-0.079818 2.726088-0.243547C948.662663 919.862221 954.214099 911.88555 952.718025 903.541511z"  />
</svg>